<?xml version="1.0" encoding="UTF-8"?>
<svg width="204px" height="21px" viewBox="0 0 204 21" version="1.1" xmlns="http://www.w3.org/2000/svg" xmlns:xlink="http://www.w3.org/1999/xlink">
    <title>Tarawera Publishing Limited</title>
    <desc>Created with Sketch.</desc>
    <defs></defs>
    <g id="logo/logoPrimaryOutlines" stroke="none" stroke-width="1" fill="none" fill-rule="evenodd">
        <path d="M159,14.0086207 L160.018749,14.0086207 L160.018749,19.25 L162.118801,19.25 L162.118801,20 L159,20 L159,14.0086207 Z M163.364932,20 L163.364932,14.0086207 L164.383681,14.0086207 L164.383681,20 L163.364932,20 Z M172.662753,14.0086207 L172.662753,20 L171.644004,20 L171.644004,15.8965517 L169.749489,20 L169.043514,20 L167.140062,15.8965517 L167.140062,20 L166.121313,20 L166.121313,14.0086207 L167.220489,14.0086207 L169.40097,18.7068966 L171.572513,14.0086207 L172.662753,14.0086207 Z M174.400385,20 L174.400385,14.0086207 L175.419134,14.0086207 L175.419134,20 L174.400385,20 Z M176.835056,14.7758621 L176.835056,14.0086207 L181.169207,14.0086207 L181.169207,14.7758621 L179.515975,14.7758621 L179.515975,20 L178.497226,20 L178.497226,14.7758621 L176.835056,14.7758621 Z M186.025641,14 L186.025641,14.7672414 L183.612815,14.7672414 L183.612815,16.5862069 L185.757549,16.5862069 L185.757549,17.3448276 L183.612815,17.3448276 L183.612815,19.2327586 L186.025641,19.2327586 L186.025641,20 L182.594066,20 L182.594066,14 L186.025641,14 Z M188.692658,19.25 L189.702471,19.25 C190.423343,19.25 190.978884,19.0517261 191.369108,18.6551724 C191.759333,18.2586187 191.954442,17.7140839 191.954442,17.0215517 C191.954442,16.3290195 191.759333,15.7859215 191.369108,15.3922414 C190.978884,14.9985612 190.423343,14.8017241 189.702471,14.8017241 L188.692658,14.8017241 L188.692658,19.25 Z M189.702471,14.0086207 C190.703352,14.0086207 191.503151,14.2801697 192.101892,14.8232759 C192.700634,15.366382 193,16.0991333 193,17.0215517 C193,17.9439701 192.700634,18.6709744 192.101892,19.2025862 C191.503151,19.7341981 190.703352,20 189.702471,20 L187.673909,20 L187.673909,14.0086207 L189.702471,14.0086207 Z" id="limited" fill="#152935"></path>
        <path d="M152.167949,4.07594937 C152.878558,4.07594937 153.426562,4.24050468 153.811977,4.56962025 C154.197392,4.89873582 154.390097,5.30942089 154.390097,5.80168776 C154.390097,6.29395464 154.207931,6.71026553 153.843593,7.05063291 C153.479255,7.3910003 152.920713,7.56118143 152.167949,7.56118143 L151.029776,7.56118143 L151.029776,9.94092827 L150,9.94092827 L150,4.07594937 L152.167949,4.07594937 Z M151.029776,6.81012658 L152.167949,6.81012658 C152.559386,6.81012658 152.851454,6.72292633 153.044162,6.54852321 C153.236869,6.37412008 153.333222,6.13080325 153.333222,5.8185654 C153.333222,5.50632755 153.236869,5.26301072 153.044162,5.08860759 C152.851454,4.91420447 152.559386,4.82700422 152.167949,4.82700422 L151.029776,4.82700422 L151.029776,6.81012658 Z M155.767146,7.79746835 L155.767146,4.07594937 L156.796922,4.07594937 L156.796922,7.79746835 C156.796922,8.24191502 156.921879,8.57665148 157.171797,8.80168776 C157.421714,9.02672405 157.770991,9.13924051 158.219639,9.13924051 C158.668286,9.13924051 159.017563,9.02672405 159.267481,8.80168776 C159.517398,8.57665148 159.642355,8.24191502 159.642355,7.79746835 L159.642355,4.07594937 L160.672131,4.07594937 L160.672131,7.79746835 C160.672131,8.50633266 160.435767,9.05063101 159.963031,9.43037975 C159.490295,9.81012848 158.903148,10 158.201572,10 C157.499996,10 156.918871,9.81153494 156.45818,9.43459916 C155.997488,9.05766338 155.767146,8.51195857 155.767146,7.79746835 Z M162.410505,4.07594937 L164.804282,4.07594937 C165.448648,4.07594937 165.948476,4.22222076 166.303781,4.51476793 C166.659085,4.80731511 166.836735,5.17861941 166.836735,5.62869198 C166.836735,6.28692312 166.430248,6.72011148 165.617263,6.92827004 C166.026767,6.99015502 166.356472,7.16033616 166.60639,7.43881857 C166.856308,7.71730097 166.981265,8.03656641 166.981265,8.39662447 C166.981265,8.84669705 166.794582,9.21659489 166.421211,9.50632911 C166.04784,9.79606333 165.548012,9.94092827 164.921713,9.94092827 L162.410505,9.94092827 L162.410505,4.07594937 Z M163.440281,4.82700422 L163.440281,6.56540084 L164.713951,6.56540084 C165.051189,6.56540084 165.314653,6.48945224 165.504349,6.33755274 C165.694046,6.18565325 165.788893,5.97327844 165.788893,5.70042194 C165.788893,5.42756544 165.694046,5.21378418 165.504349,5.05907173 C165.314653,4.90435928 165.051189,4.82700422 164.713951,4.82700422 L163.440281,4.82700422 Z M163.440281,9.18987342 L164.831382,9.18987342 C165.180664,9.18987342 165.454666,9.10829899 165.653396,8.94514768 C165.852125,8.78199637 165.951489,8.555557 165.951489,8.26582278 C165.951489,7.97608857 165.846103,7.74542983 165.63533,7.57383966 C165.424556,7.40224949 165.144532,7.3164557 164.795249,7.3164557 L163.440281,7.3164557 L163.440281,9.18987342 Z M168.502844,4.07594937 L169.53262,4.07594937 L169.53262,9.20675105 L171.655403,9.20675105 L171.655403,9.94092827 L168.502844,9.94092827 L168.502844,4.07594937 Z M172.915022,9.94092827 L172.915022,4.07594937 L173.944798,4.07594937 L173.944798,9.94092827 L172.915022,9.94092827 Z M177.652392,4.78481013 C177.345264,4.78481013 177.095351,4.85794582 176.902643,5.00421941 C176.709935,5.150493 176.613583,5.36286781 176.613583,5.64135021 C176.613583,5.91983262 176.728002,6.13220743 176.956842,6.27848101 C177.185682,6.4247546 177.462695,6.53164523 177.787889,6.59915612 C178.113083,6.666667 178.438272,6.74402207 178.763466,6.83122363 C179.08866,6.91842519 179.365673,7.08016759 179.594513,7.3164557 C179.823353,7.5527438 179.937772,7.88748025 179.937772,8.32067511 C179.937772,8.75386996 179.742056,9.14205173 179.350619,9.48523207 C178.959182,9.82841241 178.435266,10 177.778856,10 C177.122446,10 176.589497,9.85654152 176.179993,9.56962025 C175.77049,9.28269899 175.565741,8.88607848 175.565741,8.37974684 L176.667782,8.37974684 C176.69187,8.63853857 176.794245,8.8438811 176.974908,8.99578059 C177.155571,9.14768008 177.42054,9.22362869 177.769823,9.22362869 C178.119105,9.22362869 178.394613,9.13924135 178.596353,8.97046414 C178.798094,8.80168692 178.898963,8.60197021 178.898963,8.37130802 C178.898963,8.14064582 178.837237,7.96061949 178.713784,7.83122363 C178.590331,7.70182776 178.430747,7.60478232 178.235028,7.54008439 C178.03931,7.47538646 177.824023,7.41772177 177.58916,7.36708861 C177.354298,7.31645544 177.117934,7.2573843 176.88006,7.18987342 C176.642187,7.12236253 176.425394,7.03516228 176.229675,6.92827004 C176.033957,6.82137781 175.874373,6.66526122 175.75092,6.45991561 C175.627467,6.25457 175.565741,6.00281443 175.565741,5.70464135 C175.565741,5.1926838 175.762962,4.78059228 176.157411,4.46835443 C176.551859,4.15611658 177.063731,4 177.693041,4 C178.322352,4 178.82519,4.13501975 179.201572,4.40506329 C179.577954,4.67510684 179.78722,5.06610152 179.829374,5.57805907 L178.691201,5.57805907 C178.667113,5.35302278 178.564738,5.16455772 178.384075,5.01265823 C178.203412,4.86075873 177.95952,4.78481013 177.652392,4.78481013 Z M185.542322,4.07594937 L186.572098,4.07594937 L186.572098,9.94092827 L185.542322,9.94092827 L185.542322,7.35021097 L182.588491,7.35021097 L182.588491,9.94092827 L181.558715,9.94092827 L181.558715,4.07594937 L182.588491,4.07594937 L182.588491,6.60759494 L185.542322,6.60759494 L185.542322,4.07594937 Z M188.328538,9.94092827 L188.328538,4.07594937 L189.358314,4.07594937 L189.358314,9.94092827 L188.328538,9.94092827 Z M195.242891,4.06751055 L196.272666,4.06751055 L196.272666,9.94092827 L195.242891,9.94092827 L192.14453,5.56118143 L192.14453,9.94092827 L191.114754,9.94092827 L191.114754,4.06751055 L192.14453,4.06751055 L195.242891,8.43881857 L195.242891,4.06751055 Z M200.829374,9.99156118 C199.974235,9.99156118 199.236537,9.71027004 198.61626,9.14767932 C197.995982,8.58508861 197.685848,7.86920266 197.685848,7 C197.685848,6.13079734 197.995982,5.41350494 198.61626,4.84810127 C199.236537,4.28269759 199.995312,4 200.892606,4 C201.561061,4 202.155735,4.15330367 202.676648,4.45991561 C203.19756,4.76652755 203.575442,5.20112236 203.810304,5.76371308 L202.572767,5.76371308 C202.235529,5.17299283 201.675481,4.87763713 200.892606,4.87763713 C200.260285,4.87763713 199.743896,5.07172802 199.343426,5.45991561 C198.942956,5.84810321 198.742723,6.36145954 198.742723,7 C198.742723,7.63854046 198.942956,8.15189679 199.343426,8.54008439 C199.743896,8.92827198 200.242219,9.12236287 200.838407,9.12236287 C201.434596,9.12236287 201.908831,8.97468502 202.261124,8.67932489 C202.613418,8.38396477 202.825694,7.98312489 202.897959,7.47679325 L200.540314,7.47679325 L200.540314,6.7257384 L204,6.7257384 L204,7.47679325 C203.903646,8.18003165 203.566413,8.77496241 202.98829,9.26160338 C202.410168,9.74824435 201.690536,9.99156118 200.829374,9.99156118 Z" id="publishing" fill="#152935"></path>
        <path d="M0,3.85049365 L0,0 L16.5665946,0 L16.5665946,3.85049365 L10.8251033,3.85049365 L10.8251033,20.7926657 L5.71158765,20.7926657 L5.71158765,3.85049365 L0,3.85049365 Z M29.1859138,15.5500705 C29.9235397,14.8392066 30.2923471,13.8321645 30.2923471,12.528914 C30.2923471,11.2256634 29.9235397,10.2235578 29.1859138,9.522567 C28.448288,8.82157618 27.6010278,8.47108604 26.6441078,8.47108604 C25.6871878,8.47108604 24.8399276,8.82651267 24.1023018,9.53737659 C23.364676,10.2482405 22.9958686,11.2552826 22.9958686,12.5585331 C22.9958686,13.8617837 23.364676,14.8638893 24.1023018,15.5648801 C24.8399276,16.2658709 25.6871878,16.6163611 26.6441078,16.6163611 C27.6010278,16.6163611 28.448288,16.2609344 29.1859138,15.5500705 Z M20.0055086,18.6304654 C18.5302569,17.0507678 17.7926421,15.0268106 17.7926421,12.5585331 C17.7926421,10.0902556 18.5302569,8.06136197 20.0055086,6.47179126 C21.4807602,4.88222054 23.2799422,4.08744711 25.4031084,4.08744711 C27.5262746,4.08744711 29.1560046,4.8674111 30.2923471,6.42736248 L30.2923471,4.2651622 L35.4058627,4.2651622 L35.4058627,20.7926657 L30.2923471,20.7926657 L30.2923471,18.393512 C29.0563254,20.1311794 27.4016761,21 25.3283494,21 C23.2550228,21 21.4807602,20.210163 20.0055086,18.6304654 Z M44.4068464,4.2651622 L44.4068464,7.34555712 C45.6029964,5.17347292 47.1978391,4.08744711 49.1914224,4.08744711 L49.1914224,9.24118477 L47.9354712,9.24118477 C46.759257,9.24118477 45.8771096,9.5176277 45.2890026,10.0705219 C44.7008955,10.623416 44.4068464,11.5909663 44.4068464,12.9732017 L44.4068464,20.7926657 L39.2933307,20.7926657 L39.2933307,4.2651622 L44.4068464,4.2651622 Z M61.5416093,15.5500705 C62.2792351,14.8392066 62.6480425,13.8321645 62.6480425,12.528914 C62.6480425,11.2256634 62.2792351,10.2235578 61.5416093,9.522567 C60.8039835,8.82157618 59.9567233,8.47108604 58.9998033,8.47108604 C58.0428833,8.47108604 57.1956231,8.82651267 56.4579972,9.53737659 C55.7203714,10.2482405 55.351564,11.2552826 55.351564,12.5585331 C55.351564,13.8617837 55.7203714,14.8638893 56.4579972,15.5648801 C57.1956231,16.2658709 58.0428833,16.6163611 58.9998033,16.6163611 C59.9567233,16.6163611 60.8039835,16.2609344 61.5416093,15.5500705 Z M52.361204,18.6304654 C50.8859524,17.0507678 50.1483376,15.0268106 50.1483376,12.5585331 C50.1483376,10.0902556 50.8859524,8.06136197 52.361204,6.47179126 C53.8364557,4.88222054 55.6356376,4.08744711 57.7588039,4.08744711 C59.8819701,4.08744711 61.5117,4.8674111 62.6480425,6.42736248 L62.6480425,4.2651622 L67.7615581,4.2651622 L67.7615581,20.7926657 L62.6480425,20.7926657 L62.6480425,18.393512 C61.4120208,20.1311794 59.7573715,21 57.6840449,21 C55.6107182,21 53.8364557,20.210163 52.361204,18.6304654 Z M90.3985835,4.2651622 L95.2130632,4.2651622 L90.2191619,20.7926657 L84.7168995,20.7926657 L82.3844187,11.0183357 L80.0220342,20.7926657 L74.5197718,20.7926657 L69.5258705,4.2651622 L74.6393862,4.2651622 L77.2409994,15.8758815 L79.812709,4.2651622 L85.2252607,4.2651622 L87.7969703,15.8758815 L90.3985835,4.2651622 Z M104.034625,21 C101.602454,21 99.6089002,20.2249725 98.0539052,18.6748942 C96.4989102,17.1248159 95.7214244,15.0663034 95.7214244,12.4992948 C95.7214244,9.93228618 96.4939263,7.88858306 98.0389534,6.36812412 C99.5839805,4.84766518 101.582518,4.08744711 104.034625,4.08744711 C106.486733,4.08744711 108.520157,4.83779221 110.13496,6.33850494 C111.749762,7.83921766 112.557151,9.92241262 112.557151,12.5881523 C112.557151,13.1607927 112.51728,13.6939327 112.437537,14.1875882 L100.954554,14.1875882 C101.054234,14.9181983 101.38317,15.5155125 101.941373,15.9795487 C102.499577,16.4435848 103.102626,16.6755994 103.750541,16.6755994 C104.398456,16.6755994 104.881892,16.6114252 105.200866,16.4830748 C105.519839,16.3547243 105.754082,16.2263758 105.9036,16.0980254 C106.053119,15.969675 106.24749,15.7574063 106.48672,15.461213 L112.018887,15.461213 C111.540427,17.1198955 110.583521,18.4576818 109.148141,19.4746121 C107.712761,20.4915425 106.008273,21 104.034625,21 Z M107.23431,11.0183357 C107.154567,10.2482331 106.815663,9.62130002 106.217588,9.13751763 C105.619513,8.65373524 104.911802,8.41184767 104.094432,8.41184767 C103.277063,8.41184767 102.589287,8.65373524 102.031084,9.13751763 C101.472881,9.62130002 101.124009,10.2482331 100.984458,11.0183357 L107.23431,11.0183357 Z M120.361991,4.2651622 L120.361991,7.34555712 C121.558141,5.17347292 123.152984,4.08744711 125.146567,4.08744711 L125.146567,9.24118477 L123.890616,9.24118477 C122.714402,9.24118477 121.832254,9.5176277 121.244147,10.0705219 C120.65604,10.623416 120.361991,11.5909663 120.361991,12.9732017 L120.361991,20.7926657 L115.248475,20.7926657 L115.248475,4.2651622 L120.361991,4.2651622 Z M137.496754,15.5500705 C138.23438,14.8392066 138.603187,13.8321645 138.603187,12.528914 C138.603187,11.2256634 138.23438,10.2235578 137.496754,9.522567 C136.759128,8.82157618 135.911868,8.47108604 134.954948,8.47108604 C133.998028,8.47108604 133.150768,8.82651267 132.413142,9.53737659 C131.675516,10.2482405 131.306709,11.2552826 131.306709,12.5585331 C131.306709,13.8617837 131.675516,14.8638893 132.413142,15.5648801 C133.150768,16.2658709 133.998028,16.6163611 134.954948,16.6163611 C135.911868,16.6163611 136.759128,16.2609344 137.496754,15.5500705 Z M128.316349,18.6304654 C126.841097,17.0507678 126.103482,15.0268106 126.103482,12.5585331 C126.103482,10.0902556 126.841097,8.06136197 128.316349,6.47179126 C129.7916,4.88222054 131.590782,4.08744711 133.713948,4.08744711 C135.837115,4.08744711 137.466845,4.8674111 138.603187,6.42736248 L138.603187,4.2651622 L143.716703,4.2651622 L143.716703,20.7926657 L138.603187,20.7926657 L138.603187,18.393512 C137.367165,20.1311794 135.712516,21 133.639189,21 C131.565863,21 129.7916,20.210163 128.316349,18.6304654 Z M152,18.0380818 C152,18.8081844 151.73087,19.4597999 151.192603,19.9929478 C150.654335,20.5260958 149.991479,20.7926657 149.204013,20.7926657 C148.416548,20.7926657 147.753691,20.5260958 147.215424,19.9929478 C146.677156,19.4597999 146.408027,18.8032479 146.408027,18.0232722 C146.408027,17.2432965 146.677156,16.5867446 147.215424,16.0535966 C147.753691,15.5204487 148.416548,15.2538787 149.204013,15.2538787 C149.991479,15.2538787 150.654335,15.5204487 151.192603,16.0535966 C151.73087,16.5867446 152,17.248233 152,18.0380818 Z" id="Tarawera." fill="#00627E"></path>
    </g>
</svg>